<mxfile host="app.diagrams.net" modified="2023-10-24T06:36:44.023Z" agent="Mozilla/5.0 (Windows NT 10.0; Win64; x64) AppleWebKit/537.36 (KHTML, like Gecko) Chrome/118.0.0.0 Safari/537.36 Edg/118.0.2088.61" etag="LzSPHlrNspq8S7xXlaqU" version="22.0.6" type="github">
  <diagram id="R2lEEEUBdFMjLlhIrx00" name="Page-1">
    <mxGraphModel dx="2236" dy="793" grid="1" gridSize="10" guides="1" tooltips="1" connect="1" arrows="1" fold="1" page="1" pageScale="1" pageWidth="850" pageHeight="1100" math="0" shadow="0" extFonts="Permanent Marker^https://fonts.googleapis.com/css?family=Permanent+Marker">
      <root>
        <mxCell id="0" />
        <mxCell id="1" parent="0" />
        <mxCell id="AYaAB2OeAgBcZ0UBHdoZ-27" style="rounded=0;orthogonalLoop=1;jettySize=auto;html=1;exitX=0.5;exitY=1;exitDx=0;exitDy=0;entryX=0.5;entryY=0;entryDx=0;entryDy=0;endArrow=none;endFill=0;" parent="1" source="AYaAB2OeAgBcZ0UBHdoZ-1" target="AYaAB2OeAgBcZ0UBHdoZ-25" edge="1">
          <mxGeometry relative="1" as="geometry" />
        </mxCell>
        <mxCell id="AYaAB2OeAgBcZ0UBHdoZ-29" style="rounded=0;orthogonalLoop=1;jettySize=auto;html=1;exitX=0.5;exitY=1;exitDx=0;exitDy=0;entryX=0.5;entryY=0;entryDx=0;entryDy=0;endArrow=none;endFill=0;" parent="1" source="AYaAB2OeAgBcZ0UBHdoZ-1" target="AYaAB2OeAgBcZ0UBHdoZ-28" edge="1">
          <mxGeometry relative="1" as="geometry" />
        </mxCell>
        <mxCell id="AYaAB2OeAgBcZ0UBHdoZ-32" style="rounded=0;orthogonalLoop=1;jettySize=auto;html=1;exitX=1;exitY=0.5;exitDx=0;exitDy=0;endArrow=none;endFill=0;" parent="1" source="AYaAB2OeAgBcZ0UBHdoZ-1" target="AYaAB2OeAgBcZ0UBHdoZ-31" edge="1">
          <mxGeometry relative="1" as="geometry" />
        </mxCell>
        <mxCell id="kK7GqV63xoRmYmPlLLsp-4" style="rounded=0;orthogonalLoop=1;jettySize=auto;html=1;exitX=0.5;exitY=0;exitDx=0;exitDy=0;endArrow=none;endFill=0;" edge="1" parent="1" source="AYaAB2OeAgBcZ0UBHdoZ-1" target="kK7GqV63xoRmYmPlLLsp-3">
          <mxGeometry relative="1" as="geometry" />
        </mxCell>
        <mxCell id="kK7GqV63xoRmYmPlLLsp-10" style="rounded=0;orthogonalLoop=1;jettySize=auto;html=1;exitX=0.5;exitY=0;exitDx=0;exitDy=0;endArrow=none;endFill=0;" edge="1" parent="1" source="AYaAB2OeAgBcZ0UBHdoZ-1" target="kK7GqV63xoRmYmPlLLsp-9">
          <mxGeometry relative="1" as="geometry" />
        </mxCell>
        <mxCell id="kK7GqV63xoRmYmPlLLsp-11" style="rounded=0;orthogonalLoop=1;jettySize=auto;html=1;exitX=0.5;exitY=0;exitDx=0;exitDy=0;entryX=0.5;entryY=1;entryDx=0;entryDy=0;endArrow=none;endFill=0;" edge="1" parent="1" source="AYaAB2OeAgBcZ0UBHdoZ-1" target="kK7GqV63xoRmYmPlLLsp-8">
          <mxGeometry relative="1" as="geometry" />
        </mxCell>
        <mxCell id="kK7GqV63xoRmYmPlLLsp-14" style="rounded=0;orthogonalLoop=1;jettySize=auto;html=1;exitX=0.5;exitY=0;exitDx=0;exitDy=0;entryX=0.5;entryY=1;entryDx=0;entryDy=0;endArrow=none;endFill=0;" edge="1" parent="1" source="AYaAB2OeAgBcZ0UBHdoZ-1" target="kK7GqV63xoRmYmPlLLsp-12">
          <mxGeometry relative="1" as="geometry" />
        </mxCell>
        <mxCell id="AYaAB2OeAgBcZ0UBHdoZ-1" value="&lt;font style=&quot;font-size: 18px;&quot;&gt;用户&lt;/font&gt;" style="rounded=0;whiteSpace=wrap;html=1;" parent="1" vertex="1">
          <mxGeometry x="465" y="300" width="110" height="50" as="geometry" />
        </mxCell>
        <mxCell id="AYaAB2OeAgBcZ0UBHdoZ-3" value="" style="shape=table;startSize=0;container=1;collapsible=1;childLayout=tableLayout;fixedRows=1;rowLines=0;fontStyle=0;align=center;resizeLast=1;strokeColor=none;fillColor=none;collapsible=0;" parent="1" vertex="1">
          <mxGeometry x="305" y="500" width="180" height="30" as="geometry" />
        </mxCell>
        <mxCell id="AYaAB2OeAgBcZ0UBHdoZ-4" value="" style="shape=tableRow;horizontal=0;startSize=0;swimlaneHead=0;swimlaneBody=0;fillColor=none;collapsible=0;dropTarget=0;points=[[0,0.5],[1,0.5]];portConstraint=eastwest;top=0;left=0;right=0;bottom=0;" parent="AYaAB2OeAgBcZ0UBHdoZ-3" vertex="1">
          <mxGeometry width="180" height="30" as="geometry" />
        </mxCell>
        <mxCell id="AYaAB2OeAgBcZ0UBHdoZ-5" value="" style="shape=partialRectangle;connectable=0;fillColor=none;top=0;left=0;bottom=0;right=0;fontStyle=0;overflow=hidden;whiteSpace=wrap;html=1;" parent="AYaAB2OeAgBcZ0UBHdoZ-4" vertex="1">
          <mxGeometry width="30" height="30" as="geometry">
            <mxRectangle width="30" height="30" as="alternateBounds" />
          </mxGeometry>
        </mxCell>
        <mxCell id="AYaAB2OeAgBcZ0UBHdoZ-6" value="" style="shape=partialRectangle;connectable=0;fillColor=none;top=0;left=0;bottom=0;right=0;align=left;spacingLeft=6;fontStyle=0;overflow=hidden;whiteSpace=wrap;html=1;" parent="AYaAB2OeAgBcZ0UBHdoZ-4" vertex="1">
          <mxGeometry x="30" width="150" height="30" as="geometry">
            <mxRectangle width="150" height="30" as="alternateBounds" />
          </mxGeometry>
        </mxCell>
        <mxCell id="AYaAB2OeAgBcZ0UBHdoZ-46" style="rounded=0;orthogonalLoop=1;jettySize=auto;html=1;exitX=0.5;exitY=1;exitDx=0;exitDy=0;entryX=0.5;entryY=0;entryDx=0;entryDy=0;endArrow=none;endFill=0;" parent="1" source="AYaAB2OeAgBcZ0UBHdoZ-8" target="AYaAB2OeAgBcZ0UBHdoZ-14" edge="1">
          <mxGeometry relative="1" as="geometry" />
        </mxCell>
        <mxCell id="AYaAB2OeAgBcZ0UBHdoZ-8" value="&lt;span style=&quot;font-size: 15px;&quot;&gt;发表日期&lt;/span&gt;" style="rounded=1;whiteSpace=wrap;html=1;arcSize=40;fontColor=#000000;fillColor=#FFFFFF;strokeColor=#000000;" parent="1" vertex="1">
          <mxGeometry x="170" y="480" width="100" height="30" as="geometry" />
        </mxCell>
        <mxCell id="AYaAB2OeAgBcZ0UBHdoZ-15" style="edgeStyle=orthogonalEdgeStyle;rounded=0;orthogonalLoop=1;jettySize=auto;html=1;exitX=1;exitY=0.5;exitDx=0;exitDy=0;entryX=0;entryY=0.5;entryDx=0;entryDy=0;endArrow=none;endFill=0;" parent="1" source="AYaAB2OeAgBcZ0UBHdoZ-10" target="AYaAB2OeAgBcZ0UBHdoZ-14" edge="1">
          <mxGeometry relative="1" as="geometry" />
        </mxCell>
        <mxCell id="AYaAB2OeAgBcZ0UBHdoZ-81" style="rounded=0;orthogonalLoop=1;jettySize=auto;html=1;entryX=0.5;entryY=0;entryDx=0;entryDy=0;endArrow=none;endFill=0;exitX=0;exitY=0.5;exitDx=0;exitDy=0;" parent="1" source="AYaAB2OeAgBcZ0UBHdoZ-10" target="AYaAB2OeAgBcZ0UBHdoZ-79" edge="1">
          <mxGeometry relative="1" as="geometry">
            <mxPoint x="-10" y="630" as="sourcePoint" />
          </mxGeometry>
        </mxCell>
        <mxCell id="AYaAB2OeAgBcZ0UBHdoZ-82" style="rounded=0;orthogonalLoop=1;jettySize=auto;html=1;exitX=0;exitY=0.5;exitDx=0;exitDy=0;entryX=0.5;entryY=1;entryDx=0;entryDy=0;endArrow=none;endFill=0;" parent="1" source="AYaAB2OeAgBcZ0UBHdoZ-10" target="AYaAB2OeAgBcZ0UBHdoZ-77" edge="1">
          <mxGeometry relative="1" as="geometry" />
        </mxCell>
        <mxCell id="AYaAB2OeAgBcZ0UBHdoZ-83" style="rounded=0;orthogonalLoop=1;jettySize=auto;html=1;exitX=0;exitY=0.5;exitDx=0;exitDy=0;entryX=1;entryY=0.5;entryDx=0;entryDy=0;endArrow=none;endFill=0;" parent="1" source="AYaAB2OeAgBcZ0UBHdoZ-10" target="AYaAB2OeAgBcZ0UBHdoZ-78" edge="1">
          <mxGeometry relative="1" as="geometry" />
        </mxCell>
        <mxCell id="AYaAB2OeAgBcZ0UBHdoZ-105" style="rounded=0;orthogonalLoop=1;jettySize=auto;html=1;exitX=0.75;exitY=1;exitDx=0;exitDy=0;entryX=1;entryY=0.5;entryDx=0;entryDy=0;endArrow=none;endFill=0;" parent="1" source="AYaAB2OeAgBcZ0UBHdoZ-10" target="AYaAB2OeAgBcZ0UBHdoZ-102" edge="1">
          <mxGeometry relative="1" as="geometry" />
        </mxCell>
        <mxCell id="AYaAB2OeAgBcZ0UBHdoZ-106" style="rounded=0;orthogonalLoop=1;jettySize=auto;html=1;exitX=0.25;exitY=1;exitDx=0;exitDy=0;entryX=0;entryY=0.5;entryDx=0;entryDy=0;endArrow=none;endFill=0;" parent="1" source="AYaAB2OeAgBcZ0UBHdoZ-10" target="AYaAB2OeAgBcZ0UBHdoZ-102" edge="1">
          <mxGeometry relative="1" as="geometry" />
        </mxCell>
        <mxCell id="kK7GqV63xoRmYmPlLLsp-17" style="rounded=0;orthogonalLoop=1;jettySize=auto;html=1;exitX=0.5;exitY=0;exitDx=0;exitDy=0;entryX=0.5;entryY=1;entryDx=0;entryDy=0;endArrow=none;endFill=0;" edge="1" parent="1" source="AYaAB2OeAgBcZ0UBHdoZ-10" target="kK7GqV63xoRmYmPlLLsp-16">
          <mxGeometry relative="1" as="geometry" />
        </mxCell>
        <mxCell id="AYaAB2OeAgBcZ0UBHdoZ-10" value="&lt;span style=&quot;font-size: 18px;&quot;&gt;作者&lt;/span&gt;" style="rounded=0;whiteSpace=wrap;html=1;" parent="1" vertex="1">
          <mxGeometry y="590" width="110" height="50" as="geometry" />
        </mxCell>
        <mxCell id="AYaAB2OeAgBcZ0UBHdoZ-16" style="edgeStyle=orthogonalEdgeStyle;rounded=0;orthogonalLoop=1;jettySize=auto;html=1;exitX=0;exitY=0.5;exitDx=0;exitDy=0;entryX=1;entryY=0.5;entryDx=0;entryDy=0;endArrow=none;endFill=0;" parent="1" source="AYaAB2OeAgBcZ0UBHdoZ-11" target="AYaAB2OeAgBcZ0UBHdoZ-14" edge="1">
          <mxGeometry relative="1" as="geometry" />
        </mxCell>
        <mxCell id="AYaAB2OeAgBcZ0UBHdoZ-30" style="rounded=0;orthogonalLoop=1;jettySize=auto;html=1;exitX=0.5;exitY=0;exitDx=0;exitDy=0;endArrow=none;endFill=0;" parent="1" source="AYaAB2OeAgBcZ0UBHdoZ-11" target="AYaAB2OeAgBcZ0UBHdoZ-28" edge="1">
          <mxGeometry relative="1" as="geometry" />
        </mxCell>
        <mxCell id="AYaAB2OeAgBcZ0UBHdoZ-35" style="rounded=0;orthogonalLoop=1;jettySize=auto;html=1;exitX=1;exitY=0.5;exitDx=0;exitDy=0;entryX=0;entryY=0.5;entryDx=0;entryDy=0;endArrow=none;endFill=0;" parent="1" source="AYaAB2OeAgBcZ0UBHdoZ-11" target="AYaAB2OeAgBcZ0UBHdoZ-34" edge="1">
          <mxGeometry relative="1" as="geometry" />
        </mxCell>
        <mxCell id="AYaAB2OeAgBcZ0UBHdoZ-64" style="rounded=0;orthogonalLoop=1;jettySize=auto;html=1;exitX=0.5;exitY=0;exitDx=0;exitDy=0;entryX=0.5;entryY=1;entryDx=0;entryDy=0;endArrow=none;endFill=0;" parent="1" source="AYaAB2OeAgBcZ0UBHdoZ-11" target="AYaAB2OeAgBcZ0UBHdoZ-58" edge="1">
          <mxGeometry relative="1" as="geometry" />
        </mxCell>
        <mxCell id="AYaAB2OeAgBcZ0UBHdoZ-65" style="rounded=0;orthogonalLoop=1;jettySize=auto;html=1;exitX=0.5;exitY=1;exitDx=0;exitDy=0;entryX=0.5;entryY=0;entryDx=0;entryDy=0;endArrow=none;endFill=0;" parent="1" source="AYaAB2OeAgBcZ0UBHdoZ-11" target="AYaAB2OeAgBcZ0UBHdoZ-62" edge="1">
          <mxGeometry relative="1" as="geometry" />
        </mxCell>
        <mxCell id="AYaAB2OeAgBcZ0UBHdoZ-66" style="rounded=0;orthogonalLoop=1;jettySize=auto;html=1;exitX=0.5;exitY=1;exitDx=0;exitDy=0;entryX=0.5;entryY=0;entryDx=0;entryDy=0;endArrow=none;endFill=0;" parent="1" source="AYaAB2OeAgBcZ0UBHdoZ-11" target="AYaAB2OeAgBcZ0UBHdoZ-61" edge="1">
          <mxGeometry relative="1" as="geometry" />
        </mxCell>
        <mxCell id="kK7GqV63xoRmYmPlLLsp-27" style="rounded=0;orthogonalLoop=1;jettySize=auto;html=1;exitX=0.5;exitY=1;exitDx=0;exitDy=0;entryX=1;entryY=0.75;entryDx=0;entryDy=0;endArrow=none;endFill=0;" edge="1" parent="1" source="AYaAB2OeAgBcZ0UBHdoZ-11" target="kK7GqV63xoRmYmPlLLsp-26">
          <mxGeometry relative="1" as="geometry" />
        </mxCell>
        <mxCell id="kK7GqV63xoRmYmPlLLsp-28" style="rounded=0;orthogonalLoop=1;jettySize=auto;html=1;exitX=0.5;exitY=1;exitDx=0;exitDy=0;entryX=0.5;entryY=0;entryDx=0;entryDy=0;endArrow=none;endFill=0;" edge="1" parent="1" source="AYaAB2OeAgBcZ0UBHdoZ-11" target="kK7GqV63xoRmYmPlLLsp-21">
          <mxGeometry relative="1" as="geometry" />
        </mxCell>
        <mxCell id="kK7GqV63xoRmYmPlLLsp-29" style="rounded=0;orthogonalLoop=1;jettySize=auto;html=1;exitX=0.5;exitY=1;exitDx=0;exitDy=0;entryX=0.5;entryY=0;entryDx=0;entryDy=0;endArrow=none;endFill=0;" edge="1" parent="1" source="AYaAB2OeAgBcZ0UBHdoZ-11" target="kK7GqV63xoRmYmPlLLsp-22">
          <mxGeometry relative="1" as="geometry" />
        </mxCell>
        <mxCell id="kK7GqV63xoRmYmPlLLsp-30" style="rounded=0;orthogonalLoop=1;jettySize=auto;html=1;exitX=0.5;exitY=1;exitDx=0;exitDy=0;entryX=0.5;entryY=0;entryDx=0;entryDy=0;endArrow=none;endFill=0;" edge="1" parent="1" source="AYaAB2OeAgBcZ0UBHdoZ-11" target="kK7GqV63xoRmYmPlLLsp-23">
          <mxGeometry relative="1" as="geometry" />
        </mxCell>
        <mxCell id="kK7GqV63xoRmYmPlLLsp-31" style="rounded=0;orthogonalLoop=1;jettySize=auto;html=1;exitX=0.5;exitY=1;exitDx=0;exitDy=0;endArrow=none;endFill=0;" edge="1" parent="1" source="AYaAB2OeAgBcZ0UBHdoZ-11" target="kK7GqV63xoRmYmPlLLsp-24">
          <mxGeometry relative="1" as="geometry" />
        </mxCell>
        <mxCell id="AYaAB2OeAgBcZ0UBHdoZ-11" value="&lt;font style=&quot;font-size: 18px;&quot;&gt;文献&lt;/font&gt;" style="rounded=0;whiteSpace=wrap;html=1;" parent="1" vertex="1">
          <mxGeometry x="460" y="590" width="110" height="50" as="geometry" />
        </mxCell>
        <mxCell id="AYaAB2OeAgBcZ0UBHdoZ-36" style="rounded=0;orthogonalLoop=1;jettySize=auto;html=1;exitX=0;exitY=0.5;exitDx=0;exitDy=0;entryX=1;entryY=0.5;entryDx=0;entryDy=0;endArrow=none;endFill=0;" parent="1" source="AYaAB2OeAgBcZ0UBHdoZ-13" target="AYaAB2OeAgBcZ0UBHdoZ-34" edge="1">
          <mxGeometry relative="1" as="geometry" />
        </mxCell>
        <mxCell id="kK7GqV63xoRmYmPlLLsp-15" style="rounded=0;orthogonalLoop=1;jettySize=auto;html=1;exitX=1;exitY=0.5;exitDx=0;exitDy=0;endArrow=none;endFill=0;" edge="1" parent="1" source="AYaAB2OeAgBcZ0UBHdoZ-13" target="kK7GqV63xoRmYmPlLLsp-6">
          <mxGeometry relative="1" as="geometry" />
        </mxCell>
        <mxCell id="AYaAB2OeAgBcZ0UBHdoZ-13" value="&lt;span style=&quot;font-size: 18px;&quot;&gt;问答机器人&lt;/span&gt;" style="rounded=0;whiteSpace=wrap;html=1;" parent="1" vertex="1">
          <mxGeometry x="875" y="590" width="110" height="50" as="geometry" />
        </mxCell>
        <mxCell id="AYaAB2OeAgBcZ0UBHdoZ-14" value="发表" style="rhombus;whiteSpace=wrap;html=1;" parent="1" vertex="1">
          <mxGeometry x="190" y="575" width="100" height="80" as="geometry" />
        </mxCell>
        <mxCell id="AYaAB2OeAgBcZ0UBHdoZ-19" value="阅读" style="rhombus;whiteSpace=wrap;html=1;" parent="1" vertex="1">
          <mxGeometry x="375" y="390" width="90" height="80" as="geometry" />
        </mxCell>
        <mxCell id="AYaAB2OeAgBcZ0UBHdoZ-23" value="" style="endArrow=none;html=1;rounded=0;exitX=0.5;exitY=0;exitDx=0;exitDy=0;entryX=0.5;entryY=1;entryDx=0;entryDy=0;" parent="1" source="AYaAB2OeAgBcZ0UBHdoZ-19" target="AYaAB2OeAgBcZ0UBHdoZ-1" edge="1">
          <mxGeometry width="50" height="50" relative="1" as="geometry">
            <mxPoint x="455" y="430" as="sourcePoint" />
            <mxPoint x="505" y="380" as="targetPoint" />
          </mxGeometry>
        </mxCell>
        <mxCell id="AYaAB2OeAgBcZ0UBHdoZ-24" value="" style="endArrow=none;html=1;rounded=0;entryX=0.5;entryY=0;entryDx=0;entryDy=0;exitX=0.5;exitY=1;exitDx=0;exitDy=0;" parent="1" source="AYaAB2OeAgBcZ0UBHdoZ-19" target="AYaAB2OeAgBcZ0UBHdoZ-11" edge="1">
          <mxGeometry width="50" height="50" relative="1" as="geometry">
            <mxPoint x="480" y="540" as="sourcePoint" />
            <mxPoint x="530" y="490" as="targetPoint" />
          </mxGeometry>
        </mxCell>
        <mxCell id="AYaAB2OeAgBcZ0UBHdoZ-26" style="rounded=0;orthogonalLoop=1;jettySize=auto;html=1;exitX=0.5;exitY=1;exitDx=0;exitDy=0;entryX=0.5;entryY=0;entryDx=0;entryDy=0;endArrow=none;endFill=0;" parent="1" source="AYaAB2OeAgBcZ0UBHdoZ-25" target="AYaAB2OeAgBcZ0UBHdoZ-11" edge="1">
          <mxGeometry relative="1" as="geometry" />
        </mxCell>
        <mxCell id="AYaAB2OeAgBcZ0UBHdoZ-25" value="收藏" style="rhombus;whiteSpace=wrap;html=1;" parent="1" vertex="1">
          <mxGeometry x="600" y="390" width="90" height="80" as="geometry" />
        </mxCell>
        <mxCell id="AYaAB2OeAgBcZ0UBHdoZ-28" value="分享" style="rhombus;whiteSpace=wrap;html=1;" parent="1" vertex="1">
          <mxGeometry x="475" y="390" width="100" height="80" as="geometry" />
        </mxCell>
        <mxCell id="AYaAB2OeAgBcZ0UBHdoZ-33" style="rounded=0;orthogonalLoop=1;jettySize=auto;html=1;exitX=0.5;exitY=1;exitDx=0;exitDy=0;entryX=0.5;entryY=0;entryDx=0;entryDy=0;endArrow=none;endFill=0;" parent="1" source="AYaAB2OeAgBcZ0UBHdoZ-31" target="AYaAB2OeAgBcZ0UBHdoZ-13" edge="1">
          <mxGeometry relative="1" as="geometry" />
        </mxCell>
        <mxCell id="AYaAB2OeAgBcZ0UBHdoZ-31" value="问答" style="rhombus;whiteSpace=wrap;html=1;" parent="1" vertex="1">
          <mxGeometry x="880" y="395" width="100" height="80" as="geometry" />
        </mxCell>
        <mxCell id="AYaAB2OeAgBcZ0UBHdoZ-34" value="理解" style="rhombus;whiteSpace=wrap;html=1;" parent="1" vertex="1">
          <mxGeometry x="720" y="575" width="100" height="80" as="geometry" />
        </mxCell>
        <mxCell id="AYaAB2OeAgBcZ0UBHdoZ-55" style="rounded=0;orthogonalLoop=1;jettySize=auto;html=1;exitX=0.5;exitY=1;exitDx=0;exitDy=0;entryX=0.5;entryY=0;entryDx=0;entryDy=0;endArrow=none;endFill=0;" parent="1" source="AYaAB2OeAgBcZ0UBHdoZ-47" target="AYaAB2OeAgBcZ0UBHdoZ-1" edge="1">
          <mxGeometry relative="1" as="geometry" />
        </mxCell>
        <mxCell id="AYaAB2OeAgBcZ0UBHdoZ-47" value="&lt;span style=&quot;font-size: 15px;&quot;&gt;用户名&lt;/span&gt;" style="rounded=1;whiteSpace=wrap;html=1;arcSize=50;fontColor=#000000;fillColor=#FFFFFF;strokeColor=#000000;" parent="1" vertex="1">
          <mxGeometry x="200" y="280" width="100" height="30" as="geometry" />
        </mxCell>
        <mxCell id="AYaAB2OeAgBcZ0UBHdoZ-56" style="rounded=0;orthogonalLoop=1;jettySize=auto;html=1;exitX=0.5;exitY=1;exitDx=0;exitDy=0;entryX=0.5;entryY=0;entryDx=0;entryDy=0;endArrow=none;endFill=0;" parent="1" source="AYaAB2OeAgBcZ0UBHdoZ-48" target="AYaAB2OeAgBcZ0UBHdoZ-1" edge="1">
          <mxGeometry relative="1" as="geometry" />
        </mxCell>
        <mxCell id="AYaAB2OeAgBcZ0UBHdoZ-48" value="&lt;span style=&quot;font-size: 15px;&quot;&gt;电话&lt;/span&gt;" style="rounded=1;whiteSpace=wrap;html=1;arcSize=50;fontColor=#000000;fillColor=#FFFFFF;strokeColor=#000000;" parent="1" vertex="1">
          <mxGeometry x="240" y="220" width="100" height="30" as="geometry" />
        </mxCell>
        <mxCell id="AYaAB2OeAgBcZ0UBHdoZ-57" style="rounded=0;orthogonalLoop=1;jettySize=auto;html=1;exitX=0.5;exitY=1;exitDx=0;exitDy=0;entryX=0.5;entryY=0;entryDx=0;entryDy=0;endArrow=none;endFill=0;" parent="1" source="AYaAB2OeAgBcZ0UBHdoZ-49" target="AYaAB2OeAgBcZ0UBHdoZ-1" edge="1">
          <mxGeometry relative="1" as="geometry" />
        </mxCell>
        <mxCell id="AYaAB2OeAgBcZ0UBHdoZ-49" value="&lt;span style=&quot;font-size: 15px;&quot;&gt;邮箱&lt;/span&gt;" style="rounded=1;whiteSpace=wrap;html=1;arcSize=50;fontColor=#000000;fillColor=#FFFFFF;strokeColor=#000000;" parent="1" vertex="1">
          <mxGeometry x="340" y="190" width="100" height="30" as="geometry" />
        </mxCell>
        <mxCell id="AYaAB2OeAgBcZ0UBHdoZ-58" value="&lt;span style=&quot;font-size: 15px;&quot;&gt;标题&lt;/span&gt;" style="rounded=1;whiteSpace=wrap;html=1;arcSize=40;fontColor=#000000;fillColor=#FFFFFF;strokeColor=#000000;" parent="1" vertex="1">
          <mxGeometry x="320" y="500" width="100" height="30" as="geometry" />
        </mxCell>
        <mxCell id="AYaAB2OeAgBcZ0UBHdoZ-59" value="&lt;span style=&quot;font-size: 15px;&quot;&gt;作者&lt;/span&gt;" style="rounded=1;whiteSpace=wrap;html=1;arcSize=40;fontColor=#000000;fillColor=#FFFFFF;strokeColor=#000000;" parent="1" vertex="1">
          <mxGeometry x="620" y="500" width="100" height="30" as="geometry" />
        </mxCell>
        <mxCell id="AYaAB2OeAgBcZ0UBHdoZ-61" value="&lt;span style=&quot;font-size: 15px;&quot;&gt;摘要&lt;/span&gt;" style="rounded=1;whiteSpace=wrap;html=1;arcSize=40;fontColor=#000000;fillColor=#FFFFFF;strokeColor=#000000;" parent="1" vertex="1">
          <mxGeometry x="205" y="738" width="100" height="30" as="geometry" />
        </mxCell>
        <mxCell id="AYaAB2OeAgBcZ0UBHdoZ-62" value="&lt;span style=&quot;font-size: 15px;&quot;&gt;关键词&lt;/span&gt;" style="rounded=1;whiteSpace=wrap;html=1;arcSize=40;fontColor=#000000;fillColor=#FFFFFF;strokeColor=#000000;" parent="1" vertex="1">
          <mxGeometry x="740" y="685" width="100" height="30" as="geometry" />
        </mxCell>
        <mxCell id="AYaAB2OeAgBcZ0UBHdoZ-63" style="rounded=0;orthogonalLoop=1;jettySize=auto;html=1;exitX=0.5;exitY=0;exitDx=0;exitDy=0;entryX=0.596;entryY=0.968;entryDx=0;entryDy=0;entryPerimeter=0;endArrow=none;endFill=0;" parent="1" source="AYaAB2OeAgBcZ0UBHdoZ-11" target="AYaAB2OeAgBcZ0UBHdoZ-59" edge="1">
          <mxGeometry relative="1" as="geometry" />
        </mxCell>
        <mxCell id="AYaAB2OeAgBcZ0UBHdoZ-77" value="&lt;span style=&quot;font-size: 15px;&quot;&gt;单位&lt;/span&gt;" style="rounded=1;whiteSpace=wrap;html=1;arcSize=40;fontColor=#000000;fillColor=#FFFFFF;strokeColor=#000000;" parent="1" vertex="1">
          <mxGeometry x="-150" y="520" width="100" height="30" as="geometry" />
        </mxCell>
        <mxCell id="AYaAB2OeAgBcZ0UBHdoZ-78" value="&lt;span style=&quot;font-size: 15px;&quot;&gt;姓名&lt;/span&gt;" style="rounded=1;whiteSpace=wrap;html=1;arcSize=40;fontColor=#000000;fillColor=#FFFFFF;strokeColor=#000000;" parent="1" vertex="1">
          <mxGeometry x="-170" y="600" width="100" height="30" as="geometry" />
        </mxCell>
        <mxCell id="AYaAB2OeAgBcZ0UBHdoZ-79" value="&lt;span style=&quot;font-size: 15px;&quot;&gt;隶属单位&lt;/span&gt;" style="rounded=1;whiteSpace=wrap;html=1;arcSize=40;fontColor=#000000;fillColor=#FFFFFF;strokeColor=#000000;" parent="1" vertex="1">
          <mxGeometry x="-120" y="708" width="100" height="30" as="geometry" />
        </mxCell>
        <mxCell id="AYaAB2OeAgBcZ0UBHdoZ-86" value="Ｎ" style="text;html=1;align=center;verticalAlign=middle;resizable=0;points=[];autosize=1;strokeColor=none;fillColor=none;" parent="1" vertex="1">
          <mxGeometry x="130" y="588" width="40" height="30" as="geometry" />
        </mxCell>
        <mxCell id="AYaAB2OeAgBcZ0UBHdoZ-87" value="Ｍ" style="text;html=1;align=center;verticalAlign=middle;resizable=0;points=[];autosize=1;strokeColor=none;fillColor=none;" parent="1" vertex="1">
          <mxGeometry x="335" y="588" width="40" height="30" as="geometry" />
        </mxCell>
        <mxCell id="AYaAB2OeAgBcZ0UBHdoZ-92" value="Ｎ" style="text;html=1;align=center;verticalAlign=middle;resizable=0;points=[];autosize=1;strokeColor=none;fillColor=none;" parent="1" vertex="1">
          <mxGeometry x="620" y="588" width="40" height="30" as="geometry" />
        </mxCell>
        <mxCell id="AYaAB2OeAgBcZ0UBHdoZ-93" value="１" style="text;html=1;align=center;verticalAlign=middle;resizable=0;points=[];autosize=1;strokeColor=none;fillColor=none;" parent="1" vertex="1">
          <mxGeometry x="830" y="588" width="40" height="30" as="geometry" />
        </mxCell>
        <mxCell id="AYaAB2OeAgBcZ0UBHdoZ-94" value="Ｍ" style="text;html=1;align=center;verticalAlign=middle;resizable=0;points=[];autosize=1;strokeColor=none;fillColor=none;" parent="1" vertex="1">
          <mxGeometry x="725" y="340" width="40" height="30" as="geometry" />
        </mxCell>
        <mxCell id="AYaAB2OeAgBcZ0UBHdoZ-95" value="１" style="text;html=1;align=center;verticalAlign=middle;resizable=0;points=[];autosize=1;strokeColor=none;fillColor=none;" parent="1" vertex="1">
          <mxGeometry x="930" y="538" width="40" height="30" as="geometry" />
        </mxCell>
        <mxCell id="AYaAB2OeAgBcZ0UBHdoZ-96" value="Ｎ" style="text;html=1;align=center;verticalAlign=middle;resizable=0;points=[];autosize=1;strokeColor=none;fillColor=none;" parent="1" vertex="1">
          <mxGeometry x="570" y="348" width="40" height="30" as="geometry" />
        </mxCell>
        <mxCell id="AYaAB2OeAgBcZ0UBHdoZ-97" value="Ｍ" style="text;html=1;align=center;verticalAlign=middle;resizable=0;points=[];autosize=1;strokeColor=none;fillColor=none;" parent="1" vertex="1">
          <mxGeometry x="575" y="480" width="40" height="30" as="geometry" />
        </mxCell>
        <mxCell id="AYaAB2OeAgBcZ0UBHdoZ-98" value="Ｎ" style="text;html=1;align=center;verticalAlign=middle;resizable=0;points=[];autosize=1;strokeColor=none;fillColor=none;" parent="1" vertex="1">
          <mxGeometry x="515" y="360" width="40" height="30" as="geometry" />
        </mxCell>
        <mxCell id="AYaAB2OeAgBcZ0UBHdoZ-99" value="Ｍ" style="text;html=1;align=center;verticalAlign=middle;resizable=0;points=[];autosize=1;strokeColor=none;fillColor=none;" parent="1" vertex="1">
          <mxGeometry x="515" y="490" width="40" height="30" as="geometry" />
        </mxCell>
        <mxCell id="AYaAB2OeAgBcZ0UBHdoZ-100" value="Ｎ" style="text;html=1;align=center;verticalAlign=middle;resizable=0;points=[];autosize=1;strokeColor=none;fillColor=none;" parent="1" vertex="1">
          <mxGeometry x="430" y="348" width="40" height="30" as="geometry" />
        </mxCell>
        <mxCell id="AYaAB2OeAgBcZ0UBHdoZ-101" value="Ｍ" style="text;html=1;align=center;verticalAlign=middle;resizable=0;points=[];autosize=1;strokeColor=none;fillColor=none;" parent="1" vertex="1">
          <mxGeometry x="450" y="490" width="40" height="30" as="geometry" />
        </mxCell>
        <mxCell id="AYaAB2OeAgBcZ0UBHdoZ-102" value="合作" style="rhombus;whiteSpace=wrap;html=1;" parent="1" vertex="1">
          <mxGeometry x="10" y="700" width="100" height="80" as="geometry" />
        </mxCell>
        <mxCell id="AYaAB2OeAgBcZ0UBHdoZ-113" value="N" style="text;html=1;align=center;verticalAlign=middle;resizable=0;points=[];autosize=1;strokeColor=none;fillColor=none;" parent="1" vertex="1">
          <mxGeometry x="25" y="655" width="30" height="30" as="geometry" />
        </mxCell>
        <mxCell id="AYaAB2OeAgBcZ0UBHdoZ-114" value="M" style="text;html=1;align=center;verticalAlign=middle;resizable=0;points=[];autosize=1;strokeColor=none;fillColor=none;" parent="1" vertex="1">
          <mxGeometry x="95" y="655" width="30" height="30" as="geometry" />
        </mxCell>
        <mxCell id="e34YDrzQOBli2fsxVhIX-1" style="rounded=0;orthogonalLoop=1;jettySize=auto;html=1;exitX=0.5;exitY=1;exitDx=0;exitDy=0;entryX=0.5;entryY=0;entryDx=0;entryDy=0;endArrow=none;endFill=0;" parent="1" source="AYaAB2OeAgBcZ0UBHdoZ-11" target="e34YDrzQOBli2fsxVhIX-2" edge="1">
          <mxGeometry relative="1" as="geometry">
            <mxPoint x="660" y="640" as="sourcePoint" />
          </mxGeometry>
        </mxCell>
        <mxCell id="e34YDrzQOBli2fsxVhIX-2" value="&lt;span style=&quot;font-size: 15px;&quot;&gt;期刊/会议&lt;/span&gt;" style="rounded=1;whiteSpace=wrap;html=1;arcSize=40;fontColor=#000000;fillColor=#FFFFFF;strokeColor=#000000;" parent="1" vertex="1">
          <mxGeometry x="280" y="790" width="100" height="30" as="geometry" />
        </mxCell>
        <mxCell id="kK7GqV63xoRmYmPlLLsp-3" value="&lt;span style=&quot;font-size: 15px;&quot;&gt;浏览历史信息&lt;/span&gt;" style="rounded=1;whiteSpace=wrap;html=1;arcSize=50;fontColor=#000000;fillColor=#FFFFFF;strokeColor=#000000;" vertex="1" parent="1">
          <mxGeometry x="700" y="245" width="100" height="30" as="geometry" />
        </mxCell>
        <mxCell id="kK7GqV63xoRmYmPlLLsp-6" value="&lt;span style=&quot;font-size: 15px;&quot;&gt;类型&lt;/span&gt;" style="rounded=1;whiteSpace=wrap;html=1;arcSize=50;fontColor=#000000;fillColor=#FFFFFF;strokeColor=#000000;" vertex="1" parent="1">
          <mxGeometry x="1070" y="625" width="100" height="30" as="geometry" />
        </mxCell>
        <mxCell id="kK7GqV63xoRmYmPlLLsp-8" value="&lt;span style=&quot;font-size: 15px;&quot;&gt;收藏论文信息&lt;/span&gt;" style="rounded=1;whiteSpace=wrap;html=1;arcSize=50;fontColor=#000000;fillColor=#FFFFFF;strokeColor=#000000;" vertex="1" parent="1">
          <mxGeometry x="570" y="175" width="100" height="30" as="geometry" />
        </mxCell>
        <mxCell id="kK7GqV63xoRmYmPlLLsp-9" value="&lt;span style=&quot;font-size: 15px;&quot;&gt;下载论文信息&lt;/span&gt;" style="rounded=1;whiteSpace=wrap;html=1;arcSize=50;fontColor=#000000;fillColor=#FFFFFF;strokeColor=#000000;" vertex="1" parent="1">
          <mxGeometry x="665" y="205" width="100" height="30" as="geometry" />
        </mxCell>
        <mxCell id="kK7GqV63xoRmYmPlLLsp-12" value="&lt;span style=&quot;font-size: 15px;&quot;&gt;积分&lt;/span&gt;" style="rounded=1;whiteSpace=wrap;html=1;arcSize=50;fontColor=#000000;fillColor=#FFFFFF;strokeColor=#000000;" vertex="1" parent="1">
          <mxGeometry x="440" y="160" width="100" height="30" as="geometry" />
        </mxCell>
        <mxCell id="kK7GqV63xoRmYmPlLLsp-16" value="&lt;span style=&quot;font-size: 15px;&quot;&gt;论文列表&lt;/span&gt;" style="rounded=1;whiteSpace=wrap;html=1;arcSize=40;fontColor=#000000;fillColor=#FFFFFF;strokeColor=#000000;" vertex="1" parent="1">
          <mxGeometry x="-110" y="450" width="100" height="30" as="geometry" />
        </mxCell>
        <mxCell id="kK7GqV63xoRmYmPlLLsp-18" value="&lt;span style=&quot;font-size: 15px;&quot;&gt;合作者&lt;/span&gt;" style="rounded=1;whiteSpace=wrap;html=1;arcSize=40;fontColor=#000000;fillColor=#FFFFFF;strokeColor=#000000;" vertex="1" parent="1">
          <mxGeometry x="5" y="395" width="100" height="30" as="geometry" />
        </mxCell>
        <mxCell id="kK7GqV63xoRmYmPlLLsp-19" style="rounded=0;orthogonalLoop=1;jettySize=auto;html=1;exitX=0.5;exitY=0;exitDx=0;exitDy=0;entryX=0.44;entryY=1.033;entryDx=0;entryDy=0;entryPerimeter=0;endArrow=none;endFill=0;" edge="1" parent="1" source="AYaAB2OeAgBcZ0UBHdoZ-10" target="kK7GqV63xoRmYmPlLLsp-18">
          <mxGeometry relative="1" as="geometry" />
        </mxCell>
        <mxCell id="kK7GqV63xoRmYmPlLLsp-21" value="&lt;span style=&quot;font-size: 15px;&quot;&gt;参考文献&lt;/span&gt;" style="rounded=1;whiteSpace=wrap;html=1;arcSize=40;fontColor=#000000;fillColor=#FFFFFF;strokeColor=#000000;" vertex="1" parent="1">
          <mxGeometry x="390" y="810" width="100" height="30" as="geometry" />
        </mxCell>
        <mxCell id="kK7GqV63xoRmYmPlLLsp-22" value="&lt;span style=&quot;font-size: 15px;&quot;&gt;路由&lt;/span&gt;" style="rounded=1;whiteSpace=wrap;html=1;arcSize=40;fontColor=#000000;fillColor=#FFFFFF;strokeColor=#000000;" vertex="1" parent="1">
          <mxGeometry x="500" y="790" width="100" height="30" as="geometry" />
        </mxCell>
        <mxCell id="kK7GqV63xoRmYmPlLLsp-23" value="&lt;span style=&quot;font-size: 15px;&quot;&gt;引用量&lt;/span&gt;" style="rounded=1;whiteSpace=wrap;html=1;arcSize=40;fontColor=#000000;fillColor=#FFFFFF;strokeColor=#000000;" vertex="1" parent="1">
          <mxGeometry x="600" y="760" width="100" height="30" as="geometry" />
        </mxCell>
        <mxCell id="kK7GqV63xoRmYmPlLLsp-24" value="&lt;span style=&quot;font-size: 15px;&quot;&gt;类别&lt;/span&gt;" style="rounded=1;whiteSpace=wrap;html=1;arcSize=40;fontColor=#000000;fillColor=#FFFFFF;strokeColor=#000000;" vertex="1" parent="1">
          <mxGeometry x="690" y="730" width="100" height="30" as="geometry" />
        </mxCell>
        <mxCell id="kK7GqV63xoRmYmPlLLsp-26" value="&lt;span style=&quot;font-size: 15px;&quot;&gt;embedding&lt;/span&gt;" style="rounded=1;whiteSpace=wrap;html=1;arcSize=40;fontColor=#000000;fillColor=#FFFFFF;strokeColor=#000000;" vertex="1" parent="1">
          <mxGeometry x="200" y="670" width="100" height="30" as="geometry" />
        </mxCell>
      </root>
    </mxGraphModel>
  </diagram>
</mxfile>
